%TF.GenerationSoftware,KiCad,Pcbnew,9.0.0*%
%TF.CreationDate,2026-05-02T18:22:46-04:00*%
%TF.ProjectId,outtake_controller_2026,6f757474-616b-4655-9f63-6f6e74726f6c,rev?*%
%TF.SameCoordinates,Original*%
%TF.FileFunction,Soldermask,Bot*%
%TF.FilePolarity,Negative*%
%FSLAX46Y46*%
G04 Gerber Fmt 4.6, Leading zero omitted, Abs format (unit mm)*
G04 Created by KiCad (PCBNEW 9.0.0) date 2026-05-02 18:22:46*
%MOMM*%
%LPD*%
G01*
G04 APERTURE LIST*
%ADD10R,1.800000X1.800000*%
%ADD11C,1.800000*%
%ADD12C,1.600000*%
%ADD13C,2.000000*%
%ADD14O,1.600000X1.600000*%
%ADD15C,3.200000*%
%ADD16R,1.950000X1.950000*%
%ADD17C,1.950000*%
%ADD18R,2.200000X2.200000*%
%ADD19O,2.200000X2.200000*%
%ADD20R,3.200000X3.200000*%
%ADD21O,3.200000X3.200000*%
%ADD22R,2.000000X1.905000*%
%ADD23O,2.000000X1.905000*%
%ADD24C,2.800000*%
G04 APERTURE END LIST*
D10*
%TO.C,U1*%
X137600000Y-75680000D03*
D11*
X132520000Y-74410000D03*
X137600000Y-73140000D03*
X132520000Y-71870000D03*
X137600000Y-70600000D03*
X132520000Y-69330000D03*
X137600000Y-68060000D03*
X132520000Y-66790000D03*
X137600000Y-65520000D03*
X132520000Y-64250000D03*
X137600000Y-62980000D03*
X132520000Y-61710000D03*
X137600000Y-60440000D03*
X132520000Y-59170000D03*
X137600000Y-57900000D03*
%TD*%
D12*
%TO.C,C1*%
X94659996Y-89871255D03*
X96659996Y-89871255D03*
%TD*%
%TO.C,C2*%
X112275000Y-63425000D03*
X114275000Y-63425000D03*
%TD*%
%TO.C,C3*%
X112275000Y-51425000D03*
X114275000Y-51425000D03*
%TD*%
D13*
%TO.C,L1*%
X102625000Y-63425000D03*
X89925000Y-63425000D03*
%TD*%
D12*
%TO.C,R4*%
X127775000Y-122005000D03*
D14*
X127775000Y-111845000D03*
%TD*%
D12*
%TO.C,R2*%
X113195000Y-111925000D03*
D14*
X123355000Y-111925000D03*
%TD*%
D12*
%TO.C,R5*%
X83830000Y-121965000D03*
D14*
X83830000Y-111805000D03*
%TD*%
D12*
%TO.C,R3*%
X69670000Y-111885000D03*
D14*
X79830000Y-111885000D03*
%TD*%
D15*
%TO.C,REF\u002A\u002A*%
X57500000Y-122500000D03*
%TD*%
D16*
%TO.C,J6*%
X163000000Y-112447500D03*
D17*
X163000000Y-107447500D03*
%TD*%
D16*
%TO.C,J1*%
X55500000Y-62000000D03*
D17*
X55500000Y-57000000D03*
X55500000Y-52000000D03*
X55500000Y-47000000D03*
%TD*%
D16*
%TO.C,J5*%
X162775000Y-62425000D03*
D17*
X162775000Y-57425000D03*
%TD*%
D18*
%TO.C,D10*%
X139025000Y-51385000D03*
D19*
X139025000Y-41225000D03*
%TD*%
D18*
%TO.C,D7*%
X144025000Y-41225000D03*
D19*
X144025000Y-51385000D03*
%TD*%
D18*
%TO.C,D1*%
X134025000Y-93305000D03*
D19*
X134025000Y-83145000D03*
%TD*%
D18*
%TO.C,D9*%
X134025000Y-41225000D03*
D19*
X134025000Y-51385000D03*
%TD*%
D16*
%TO.C,J3*%
X55500000Y-108000000D03*
D17*
X55500000Y-103000000D03*
X55500000Y-98000000D03*
X55500000Y-93000000D03*
%TD*%
D18*
%TO.C,D5*%
X149025000Y-83225000D03*
D19*
X149025000Y-93385000D03*
%TD*%
D20*
%TO.C,D11*%
X148000000Y-107500000D03*
D21*
X148000000Y-122740000D03*
%TD*%
D10*
%TO.C,D6*%
X104872500Y-88650000D03*
D11*
X104872500Y-91190000D03*
%TD*%
D12*
%TO.C,R1*%
X94669373Y-97436898D03*
D14*
X104829373Y-97436898D03*
%TD*%
D20*
%TO.C,D12*%
X103000000Y-106380000D03*
D21*
X103000000Y-121620000D03*
%TD*%
D22*
%TO.C,Q1*%
X135775000Y-111845000D03*
D23*
X135775000Y-114385000D03*
X135775000Y-116925000D03*
%TD*%
D16*
%TO.C,J2*%
X55500000Y-80000000D03*
D17*
X55500000Y-75000000D03*
%TD*%
D22*
%TO.C,Q2*%
X91830000Y-111885000D03*
D23*
X91830000Y-114425000D03*
X91830000Y-116965000D03*
%TD*%
D18*
%TO.C,D8*%
X149025000Y-51385000D03*
D19*
X149025000Y-41225000D03*
%TD*%
D16*
%TO.C,J7*%
X163025000Y-96372500D03*
D17*
X163025000Y-91372500D03*
%TD*%
D15*
%TO.C,REF\u002A\u002A*%
X162500000Y-122500000D03*
%TD*%
D18*
%TO.C,D2*%
X139025000Y-83225000D03*
D19*
X139025000Y-93385000D03*
%TD*%
D20*
%TO.C,D3*%
X84395000Y-63425000D03*
D21*
X69155000Y-63425000D03*
%TD*%
D18*
%TO.C,D4*%
X144025000Y-93385000D03*
D19*
X144025000Y-83225000D03*
%TD*%
D15*
%TO.C,REF\u002A\u002A*%
X57500000Y-37500000D03*
%TD*%
D16*
%TO.C,J4*%
X162775000Y-76425000D03*
D17*
X162775000Y-71425000D03*
%TD*%
D15*
%TO.C,REF\u002A\u002A*%
X162500000Y-37500000D03*
%TD*%
D24*
%TO.C,*%
X126500000Y-58050000D03*
%TD*%
%TO.C,*%
X126600000Y-75850000D03*
%TD*%
M02*
