M48
; DRILL file {KiCad 9.0.0} date 2026-05-02T18:22:42-0400
; FORMAT={-:-/ absolute / metric / decimal}
; #@! TF.CreationDate,2026-05-02T18:22:42-04:00
; #@! TF.GenerationSoftware,Kicad,Pcbnew,9.0.0
; #@! TF.FileFunction,Plated,1,2,PTH
FMAT,2
METRIC
; #@! TA.AperFunction,Plated,PTH,ViaDrill
T1C0.300
; #@! TA.AperFunction,Plated,PTH,ComponentDrill
T2C0.800
; #@! TA.AperFunction,Plated,PTH,ComponentDrill
T3C0.900
; #@! TA.AperFunction,Plated,PTH,ComponentDrill
T4C1.000
; #@! TA.AperFunction,Plated,PTH,ComponentDrill
T5C1.100
; #@! TA.AperFunction,Plated,PTH,ComponentDrill
T6C1.300
; #@! TA.AperFunction,Plated,PTH,ComponentDrill
T7C1.600
; #@! TA.AperFunction,Plated,PTH,ComponentDrill
T8C2.300
%
G90
G05
T1
X61.225Y-75.075
X61.225Y-80.075
X61.5Y-93.0
X61.5Y-98.0
X62.5Y-103.0
X62.5Y-108.0
X63.775Y-47.0
X63.775Y-54.5
X65.0Y-75.0
X65.0Y-80.067
X69.155Y-54.805
X87.5Y-108.5
X89.381Y-97.15
X89.381Y-109.469
X95.275Y-56.925
X95.275Y-71.5
X107.5Y-121.5
X107.696Y-73.304
X112.6Y-97.4
X114.275Y-57.0
X115.626Y-70.626
X119.283Y-68.6
X126.964Y-61.768
X131.3Y-55.1
X135.45Y-78.5
X139.0Y-55.0
X139.0Y-80.0
X139.35Y-78.5
X140.3Y-100.6
X140.3Y-111.0
X150.75Y-76.5
X151.8Y-57.5
T2
X69.67Y-111.885
X79.83Y-111.885
X83.83Y-111.805
X83.83Y-121.965
X94.66Y-89.871
X94.669Y-97.437
X96.66Y-89.871
X104.829Y-97.437
X112.275Y-51.425
X112.275Y-63.425
X113.195Y-111.925
X114.275Y-51.425
X114.275Y-63.425
X123.355Y-111.925
X127.775Y-111.845
X127.775Y-122.005
T3
X104.873Y-88.65
X104.873Y-91.19
T4
X89.925Y-63.425
X102.625Y-63.425
X132.52Y-59.17
X132.52Y-61.71
X132.52Y-64.25
X132.52Y-66.79
X132.52Y-69.33
X132.52Y-71.87
X132.52Y-74.41
X137.6Y-57.9
X137.6Y-60.44
X137.6Y-62.98
X137.6Y-65.52
X137.6Y-68.06
X137.6Y-70.6
X137.6Y-73.14
X137.6Y-75.68
T5
X91.83Y-111.885
X91.83Y-114.425
X91.83Y-116.965
X134.025Y-41.225
X134.025Y-51.385
X134.025Y-83.145
X134.025Y-93.305
X135.775Y-111.845
X135.775Y-114.385
X135.775Y-116.925
X139.025Y-41.225
X139.025Y-51.385
X139.025Y-83.225
X139.025Y-93.385
X144.025Y-41.225
X144.025Y-51.385
X144.025Y-83.225
X144.025Y-93.385
X149.025Y-41.225
X149.025Y-51.385
X149.025Y-83.225
X149.025Y-93.385
T6
X55.5Y-47.0
X55.5Y-52.0
X55.5Y-57.0
X55.5Y-62.0
X55.5Y-75.0
X55.5Y-80.0
X55.5Y-93.0
X55.5Y-98.0
X55.5Y-103.0
X55.5Y-108.0
X162.775Y-57.425
X162.775Y-62.425
X162.775Y-71.425
X162.775Y-76.425
X163.0Y-107.447
X163.0Y-112.447
X163.025Y-91.373
X163.025Y-96.373
T7
X69.155Y-63.425
X84.395Y-63.425
X103.0Y-106.38
X103.0Y-121.62
X148.0Y-107.5
X148.0Y-122.74
T8
X126.5Y-58.05
X126.6Y-75.85
M30
